<svg width="256" height="283" viewBox="0 0 256 283" fill="none" xmlns="http://www.w3.org/2000/svg">
<path d="M0 18C0 8.05887 8.05887 0 18 0V0C27.9411 0 36 8.05888 36 18V283H0V18Z" fill="white"/>
<path d="M220 18C220 8.05887 228.059 0 238 0V0C247.941 0 256 8.05888 256 18V283H220V18Z" fill="white"/>
<path d="M44 169C44 159.059 52.0589 151 62 151V151C71.9411 151 80 159.059 80 169V236C80 245.941 71.9411 254 62 254V254C52.0589 254 44 245.941 44 236V169Z" fill="white"/>
<path d="M132 169C132 159.059 140.059 151 150 151V151C159.941 151 168 159.059 168 169V236C168 245.941 159.941 254 150 254V254C140.059 254 132 245.941 132 236V169Z" fill="white"/>
<path d="M176 169C176 159.059 184.059 151 194 151V151C203.941 151 212 159.059 212 169V236C212 245.941 203.941 254 194 254V254C184.059 254 176 245.941 176 236V169Z" fill="white"/>
<path d="M44 27C44 17.0589 52.0589 9 62 9V9C71.9411 9 80 17.0589 80 27V94C80 103.941 71.9411 112 62 112V112C52.0589 112 44 103.941 44 94V27Z" fill="white"/>
<path d="M136.798 37.8198C132.491 28.8601 136.263 18.1053 145.223 13.7984V13.7984C154.183 9.49145 164.937 13.2633 169.244 22.223L198.272 82.6085C202.579 91.5682 198.807 102.323 189.847 106.63V106.63C180.887 110.937 170.133 107.165 165.826 98.2053L136.798 37.8198Z" fill="white"/>
<path d="M88 169C88 159.059 96.0589 151 106 151V151C115.941 151 124 159.059 124 169V236C124 245.941 115.941 254 106 254V254C96.0589 254 88 245.941 88 236V169Z" fill="white"/>
<path d="M88 27C88 17.0589 96.0589 9 106 9V9C115.941 9 124 17.0589 124 27V94C124 103.941 115.941 112 106 112V112C96.0589 112 88 103.941 88 94V27Z" fill="white"/>
<rect y="283" width="20" height="234" transform="rotate(-90 0 283)" fill="white"/>
<rect y="141" width="20" height="234" transform="rotate(-90 0 141)" fill="white"/>
</svg>
